# xmcd
#
# Track frame offsets: 
#        150
#        1846
#        20659
#        38468
#        56676
#        76171
#        95346
#        114335
#        132913
#        150012
#        168764
#        189515
#
# Disc length: 2677 seconds
#
# Revision: 0
# Processed by: cddbd v1.5.2PL0 Copyright (c) Steve Scherf et al.
# Submitted via: ExactAudioCopy v0.99pb5
#
DISCID=780a730c
DTITLE=Various Artist - Hifi Thai Country
DYEAR=2009
DGENRE=Country
TTITLE0=โฆษก
TTITLE1=เสียงครวญของหนุ่มไทย
TTITLE2=หาแฟนขับ
TTITLE3=เจ้าทึ่ม
TTITLE4=เอาใหม่
TTITLE5=ข้าเหนื่อย
TTITLE6=พื่น้อง
TTITLE7=เปิดเพลงเมื่อไหร่
TTITLE8=ตบยุง
TTITLE9=รอจดหมาย
TTITLE10=ขออาย
TTITLE11=ข้าเหนื่อย (ขลุ่ย)
EXTD=
EXTT0=
EXTT1=
EXTT2=
EXTT3=
EXTT4=
EXTT5=
EXTT6=
EXTT7=
EXTT8=
EXTT9=
EXTT10=
EXTT11=
PLAYORDER=
